<svg xmlns="http://www.w3.org/2000/svg" viewBox="0 0 24 24" fill="currentColor">
  <path d="M16.365 2.43c-.968.57-1.66 1.558-1.536 2.634 1.177.09 2.39-.602 3.065-1.54.67-.93.926-2.17.7-3.324-.99.04-2.266.66-3.229 1.23z"/>
  <path d="M20.436 16.463c-.398.92-.867 1.79-1.403 2.606-.747 1.147-1.6 2.42-2.82 2.435-1.112.022-1.475-.722-2.745-.722-1.27 0-1.67.7-2.73.744-1.17.043-2.065-1.238-2.817-2.382-1.536-2.356-2.706-6.678-1.113-9.59.764-1.392 2.124-2.28 3.617-2.303 1.127-.022 2.19.772 2.744.772.54 0 1.89-.957 3.186-.818.545.022 2.071.217 3.051 1.644-.08.05-1.824 1.068-1.804 3.237.025 2.57 2.193 3.424 2.439 3.476z"/>
</svg>
